<svg preserveAspectRatio="none" width="100%" height="100%" overflow="visible" style="display: block;" viewBox="0 0 21.6667 21.6667" fill="none" xmlns="http://www.w3.org/2000/svg">
<g id="Vector" filter="url(#filter0_d_278_20931)">
<path d="M18.5417 10C18.5417 5.7428 15.0905 2.29167 10.8333 2.29167C6.57614 2.29167 3.125 5.7428 3.125 10C3.125 14.2572 6.57614 17.7083 10.8333 17.7083C15.0905 17.7083 18.5417 14.2572 18.5417 10ZM19.7917 10C19.7917 14.9476 15.7809 18.9583 10.8333 18.9583C5.88578 18.9583 1.875 14.9476 1.875 10C1.875 5.05245 5.88578 1.04167 10.8333 1.04167C15.7809 1.04167 19.7917 5.05245 19.7917 10Z" fill="var(--fill-0, #171717)"/>
<path d="M18.5417 10C18.5417 5.7428 15.0905 2.29167 10.8333 2.29167C6.57614 2.29167 3.125 5.7428 3.125 10C3.125 14.2572 6.57614 17.7083 10.8333 17.7083C15.0905 17.7083 18.5417 14.2572 18.5417 10ZM19.7917 10C19.7917 14.9476 15.7809 18.9583 10.8333 18.9583C5.88578 18.9583 1.875 14.9476 1.875 10C1.875 5.05245 5.88578 1.04167 10.8333 1.04167C15.7809 1.04167 19.7917 5.05245 19.7917 10Z" stroke="var(--stroke-0, #171717)" stroke-width="0.416667" stroke-linecap="round" stroke-linejoin="round"/>
</g>
<defs>
<filter id="filter0_d_278_20931" x="4.47035e-08" y="-1.49012e-08" width="21.6667" height="21.6667" filterUnits="userSpaceOnUse" color-interpolation-filters="sRGB">
<feFlood flood-opacity="0" result="BackgroundImageFix"/>
<feColorMatrix in="SourceAlpha" type="matrix" values="0 0 0 0 0 0 0 0 0 0 0 0 0 0 0 0 0 0 127 0" result="hardAlpha"/>
<feOffset dy="0.833333"/>
<feGaussianBlur stdDeviation="0.833333"/>
<feComposite in2="hardAlpha" operator="out"/>
<feColorMatrix type="matrix" values="0 0 0 0 0 0 0 0 0 0 0 0 0 0 0 0 0 0 0.05 0"/>
<feBlend mode="normal" in2="BackgroundImageFix" result="effect1_dropShadow_278_20931"/>
<feBlend mode="normal" in="SourceGraphic" in2="effect1_dropShadow_278_20931" result="shape"/>
</filter>
</defs>
</svg>
