<svg width="20" height="20" viewBox="140 100 200 200" fill="none" xmlns="http://www.w3.org/2000/svg">
  <path d="M317.083 200C317.083 157.428 282.572 122.917 240 122.917C197.428 122.917 162.917 157.428 162.917 200C162.917 242.572 197.428 277.083 240 277.083C282.572 277.083 317.083 242.572 317.083 200ZM329.583 200C329.583 249.475 289.476 289.583 240 289.583C190.524 289.583 150.417 249.475 150.417 200C150.417 150.524 190.524 110.417 240 110.417C289.476 110.417 329.583 150.524 329.583 200Z" fill="#171717"/>
  <path d="M308.837 200C308.837 176.239 278.018 156.977 240 156.977C201.982 156.977 171.163 176.239 171.163 200C171.163 223.761 201.982 243.023 240 243.023C278.018 243.023 308.837 223.761 308.837 200ZM320 200C320 227.614 284.183 250 240 250C195.817 250 160 227.614 160 200C160 172.386 195.817 150 240 150C284.183 150 320 172.386 320 200Z" fill="#171717"/>
</svg>
