<svg width="1140" height="400" viewBox="0 0 1140 400" fill="none" xmlns="http://www.w3.org/2000/svg">
<g clip-path="url(#clip0_277_16459)">
<g filter="url(#filter0_d_277_16459)">
<path d="M317.083 200C317.083 157.428 282.572 122.917 240 122.917C197.428 122.917 162.917 157.428 162.917 200C162.917 242.572 197.428 277.083 240 277.083C282.572 277.083 317.083 242.572 317.083 200ZM329.583 200C329.583 249.475 289.476 289.583 240 289.583C190.524 289.583 150.417 249.475 150.417 200C150.417 150.524 190.524 110.417 240 110.417C289.476 110.417 329.583 150.524 329.583 200Z" fill="#171717"/>
<path d="M317.083 200C317.083 157.428 282.572 122.917 240 122.917C197.428 122.917 162.917 157.428 162.917 200C162.917 242.572 197.428 277.083 240 277.083C282.572 277.083 317.083 242.572 317.083 200ZM329.583 200C329.583 249.475 289.476 289.583 240 289.583C190.524 289.583 150.417 249.475 150.417 200C150.417 150.524 190.524 110.417 240 110.417C289.476 110.417 329.583 150.524 329.583 200Z" stroke="#171717" stroke-width="4.16667" stroke-linecap="round" stroke-linejoin="round"/>
</g>
</g>
<path d="M308.837 200C308.837 176.239 278.018 156.977 240 156.977C201.982 156.977 171.163 176.239 171.163 200C171.163 223.761 201.982 243.023 240 243.023C278.018 243.023 308.837 223.761 308.837 200ZM320 200C320 227.614 284.183 250 240 250C195.817 250 160 227.614 160 200C160 172.386 195.817 150 240 150C284.183 150 320 172.386 320 200Z" fill="#171717" stroke="#171717" stroke-width="10" stroke-linecap="round" stroke-linejoin="round"/>
<mask id="path-6-outside-1_277_16459" maskUnits="userSpaceOnUse" x="413" y="140" width="569" height="126" fill="black">
<rect fill="white" x="413" y="140" width="569" height="126"/>
<path d="M414.22 263V142.76H455.8C476.32 142.76 491.98 147.8 502.78 157.88C513.58 167.96 518.98 182.96 518.98 202.88C518.98 222.8 513.58 237.8 502.78 247.88C491.98 257.96 476.32 263 455.8 263H414.22ZM432.22 247.52H454.72C470.92 247.52 482.62 243.86 489.82 236.54C497.02 229.1 500.62 217.88 500.62 202.88C500.62 187.88 497.02 176.72 489.82 169.4C482.62 161.96 470.92 158.24 454.72 158.24H432.22V247.52ZM576.613 264.8C568.093 264.8 560.413 263.12 553.573 259.76C546.853 256.28 541.513 251.3 537.553 244.82C533.593 238.22 531.613 230.18 531.613 220.7C531.613 211.7 533.473 203.9 537.193 197.3C541.033 190.7 546.133 185.6 552.493 182C558.973 178.4 566.173 176.6 574.093 176.6C582.373 176.6 589.573 178.22 595.693 181.46C601.813 184.7 606.493 189.08 609.733 194.6C613.093 200 614.773 206.18 614.773 213.14C614.773 215.18 614.473 217.4 613.873 219.8C613.393 222.2 612.733 224.12 611.893 225.56H548.893C549.493 230.96 550.993 235.52 553.393 239.24C555.913 242.84 559.273 245.6 563.473 247.52C567.673 249.32 572.533 250.22 578.053 250.22C583.573 250.22 588.433 249.38 592.633 247.7C596.953 246.02 601.093 243.68 605.053 240.68L611.173 253.1C606.493 256.94 601.213 259.88 595.333 261.92C589.573 263.84 583.333 264.8 576.613 264.8ZM548.893 212.6H597.313C597.433 212.24 597.493 211.94 597.493 211.7C597.493 211.46 597.493 211.16 597.493 210.8C597.493 206.72 596.653 203.24 594.973 200.36C593.293 197.36 590.773 195.02 587.413 193.34C584.053 191.66 579.793 190.82 574.633 190.82C570.433 190.82 566.533 191.72 562.933 193.52C559.453 195.2 556.453 197.66 553.933 200.9C551.533 204.02 549.853 207.92 548.893 212.6ZM671.616 264.8C662.976 264.8 655.296 263 648.576 259.4C641.856 255.68 636.636 250.52 632.916 243.92C629.196 237.32 627.336 229.58 627.336 220.7C627.336 211.82 629.196 204.08 632.916 197.48C636.636 190.88 641.856 185.78 648.576 182.18C655.296 178.46 662.976 176.6 671.616 176.6C677.736 176.6 683.256 177.5 688.176 179.3C693.216 181.1 697.716 183.62 701.676 186.86L695.556 199.64C691.716 196.88 687.756 194.84 683.676 193.52C679.596 192.08 675.576 191.36 671.616 191.36C666.216 191.36 661.476 192.56 657.396 194.96C653.316 197.36 650.136 200.72 647.856 205.04C645.696 209.36 644.616 214.58 644.616 220.7C644.616 226.82 645.696 232.04 647.856 236.36C650.136 240.68 653.316 244.04 657.396 246.44C661.476 248.84 666.216 250.04 671.616 250.04C675.576 250.04 679.596 249.38 683.676 248.06C687.756 246.62 691.716 244.52 695.556 241.76L701.676 254.54C697.716 257.78 693.216 260.3 688.176 262.1C683.256 263.9 677.736 264.8 671.616 264.8ZM758.39 264.8C749.87 264.8 742.19 263.12 735.35 259.76C728.63 256.28 723.29 251.3 719.33 244.82C715.37 238.22 713.39 230.18 713.39 220.7C713.39 211.7 715.25 203.9 718.97 197.3C722.81 190.7 727.91 185.6 734.27 182C740.75 178.4 747.95 176.6 755.87 176.6C764.15 176.6 771.35 178.22 777.47 181.46C783.59 184.7 788.27 189.08 791.51 194.6C794.87 200 796.55 206.18 796.55 213.14C796.55 215.18 796.25 217.4 795.65 219.8C795.17 222.2 794.51 224.12 793.67 225.56H730.67C731.27 230.96 732.77 235.52 735.17 239.24C737.69 242.84 741.05 245.6 745.25 247.52C749.45 249.32 754.31 250.22 759.83 250.22C765.35 250.22 770.21 249.38 774.41 247.7C778.73 246.02 782.87 243.68 786.83 240.68L792.95 253.1C788.27 256.94 782.99 259.88 777.11 261.92C771.35 263.84 765.11 264.8 758.39 264.8ZM730.67 212.6H779.09C779.21 212.24 779.27 211.94 779.27 211.7C779.27 211.46 779.27 211.16 779.27 210.8C779.27 206.72 778.43 203.24 776.75 200.36C775.07 197.36 772.55 195.02 769.19 193.34C765.83 191.66 761.57 190.82 756.41 190.82C752.21 190.82 748.31 191.72 744.71 193.52C741.23 195.2 738.23 197.66 735.71 200.9C733.31 204.02 731.63 207.92 730.67 212.6ZM813.793 263V178.4H829.993V193.34C832.273 188.06 835.453 184.1 839.533 181.46C843.733 178.7 848.413 177.32 853.573 177.32C855.253 177.32 856.753 177.44 858.073 177.68C859.513 177.8 860.593 178.04 861.313 178.4V194.42C859.753 194.06 858.133 193.82 856.453 193.7C854.893 193.46 853.333 193.34 851.773 193.34C845.773 193.34 840.733 195.86 836.653 200.9C832.693 205.82 830.713 212.9 830.713 222.14V263H813.793ZM875.59 263V178.4H892.51V263H875.59ZM883.87 160.94C880.87 160.94 878.41 160.04 876.49 158.24C874.69 156.44 873.79 154.1 873.79 151.22C873.79 148.34 874.69 146.06 876.49 144.38C878.41 142.58 880.87 141.68 883.87 141.68C886.99 141.68 889.51 142.58 891.43 144.38C893.35 146.06 894.31 148.34 894.31 151.22C894.31 154.1 893.35 156.44 891.43 158.24C889.51 160.04 886.99 160.94 883.87 160.94ZM944.239 264.8C937.759 264.8 931.699 263.84 926.059 261.92C920.419 259.88 914.959 257 909.679 253.28L916.699 239.96C921.979 243.56 926.839 246.26 931.279 248.06C935.719 249.74 940.159 250.58 944.599 250.58C950.719 250.58 955.279 249.68 958.279 247.88C961.399 245.96 962.959 243.14 962.959 239.42C962.959 236.3 961.999 234.02 960.079 232.58C958.279 231.02 955.039 229.82 950.359 228.98L935.959 226.28C928.159 224.84 922.279 222.26 918.319 218.54C914.359 214.7 912.379 209.78 912.379 203.78C912.379 198.86 913.579 194.36 915.979 190.28C918.499 186.08 922.219 182.78 927.139 180.38C932.059 177.86 938.239 176.6 945.679 176.6C951.799 176.6 957.559 177.5 962.959 179.3C968.359 181.1 973.219 183.56 977.539 186.68L970.699 199.46C966.979 196.94 963.079 194.9 958.999 193.34C954.919 191.66 950.659 190.82 946.219 190.82C941.059 190.82 936.979 191.72 933.979 193.52C931.099 195.2 929.659 197.96 929.659 201.8C929.659 204.32 930.559 206.3 932.359 207.74C934.159 209.06 937.159 210.14 941.359 210.98L955.759 213.68C963.679 215.12 969.739 217.7 973.939 221.42C978.139 225.14 980.239 230.54 980.239 237.62C980.239 245.54 977.179 252.08 971.059 257.24C964.939 262.28 955.999 264.8 944.239 264.8Z"/>
</mask>
<path d="M414.22 263V142.76H455.8C476.32 142.76 491.98 147.8 502.78 157.88C513.58 167.96 518.98 182.96 518.98 202.88C518.98 222.8 513.58 237.8 502.78 247.88C491.98 257.96 476.32 263 455.8 263H414.22ZM432.22 247.52H454.72C470.92 247.52 482.62 243.86 489.82 236.54C497.02 229.1 500.62 217.88 500.62 202.88C500.62 187.88 497.02 176.72 489.82 169.4C482.62 161.96 470.92 158.24 454.72 158.24H432.22V247.52ZM576.613 264.8C568.093 264.8 560.413 263.12 553.573 259.76C546.853 256.28 541.513 251.3 537.553 244.82C533.593 238.22 531.613 230.18 531.613 220.7C531.613 211.7 533.473 203.9 537.193 197.3C541.033 190.7 546.133 185.6 552.493 182C558.973 178.4 566.173 176.6 574.093 176.6C582.373 176.6 589.573 178.22 595.693 181.46C601.813 184.7 606.493 189.08 609.733 194.6C613.093 200 614.773 206.18 614.773 213.14C614.773 215.18 614.473 217.4 613.873 219.8C613.393 222.2 612.733 224.12 611.893 225.56H548.893C549.493 230.96 550.993 235.52 553.393 239.24C555.913 242.84 559.273 245.6 563.473 247.52C567.673 249.32 572.533 250.22 578.053 250.22C583.573 250.22 588.433 249.38 592.633 247.7C596.953 246.02 601.093 243.68 605.053 240.68L611.173 253.1C606.493 256.94 601.213 259.88 595.333 261.92C589.573 263.84 583.333 264.8 576.613 264.8ZM548.893 212.6H597.313C597.433 212.24 597.493 211.94 597.493 211.7C597.493 211.46 597.493 211.16 597.493 210.8C597.493 206.72 596.653 203.24 594.973 200.36C593.293 197.36 590.773 195.02 587.413 193.34C584.053 191.66 579.793 190.82 574.633 190.82C570.433 190.82 566.533 191.72 562.933 193.52C559.453 195.2 556.453 197.66 553.933 200.9C551.533 204.02 549.853 207.92 548.893 212.6ZM671.616 264.8C662.976 264.8 655.296 263 648.576 259.4C641.856 255.68 636.636 250.52 632.916 243.92C629.196 237.32 627.336 229.58 627.336 220.7C627.336 211.82 629.196 204.08 632.916 197.48C636.636 190.88 641.856 185.78 648.576 182.18C655.296 178.46 662.976 176.6 671.616 176.6C677.736 176.6 683.256 177.5 688.176 179.3C693.216 181.1 697.716 183.62 701.676 186.86L695.556 199.64C691.716 196.88 687.756 194.84 683.676 193.52C679.596 192.08 675.576 191.36 671.616 191.36C666.216 191.36 661.476 192.56 657.396 194.96C653.316 197.36 650.136 200.72 647.856 205.04C645.696 209.36 644.616 214.58 644.616 220.7C644.616 226.82 645.696 232.04 647.856 236.36C650.136 240.68 653.316 244.04 657.396 246.44C661.476 248.84 666.216 250.04 671.616 250.04C675.576 250.04 679.596 249.38 683.676 248.06C687.756 246.62 691.716 244.52 695.556 241.76L701.676 254.54C697.716 257.78 693.216 260.3 688.176 262.1C683.256 263.9 677.736 264.8 671.616 264.8ZM758.39 264.8C749.87 264.8 742.19 263.12 735.35 259.76C728.63 256.28 723.29 251.3 719.33 244.82C715.37 238.22 713.39 230.18 713.39 220.7C713.39 211.7 715.25 203.9 718.97 197.3C722.81 190.7 727.91 185.6 734.27 182C740.75 178.4 747.95 176.6 755.87 176.6C764.15 176.6 771.35 178.22 777.47 181.46C783.59 184.7 788.27 189.08 791.51 194.6C794.87 200 796.55 206.18 796.55 213.14C796.55 215.18 796.25 217.4 795.65 219.8C795.17 222.2 794.51 224.12 793.67 225.56H730.67C731.27 230.96 732.77 235.52 735.17 239.24C737.69 242.84 741.05 245.6 745.25 247.52C749.45 249.32 754.31 250.22 759.83 250.22C765.35 250.22 770.21 249.38 774.41 247.7C778.73 246.02 782.87 243.68 786.83 240.68L792.95 253.1C788.27 256.94 782.99 259.88 777.11 261.92C771.35 263.84 765.11 264.8 758.39 264.8ZM730.67 212.6H779.09C779.21 212.24 779.27 211.94 779.27 211.7C779.27 211.46 779.27 211.16 779.27 210.8C779.27 206.72 778.43 203.24 776.75 200.36C775.07 197.36 772.55 195.02 769.19 193.34C765.83 191.66 761.57 190.82 756.41 190.82C752.21 190.82 748.31 191.72 744.71 193.52C741.23 195.2 738.23 197.66 735.71 200.9C733.31 204.02 731.63 207.92 730.67 212.6ZM813.793 263V178.4H829.993V193.34C832.273 188.06 835.453 184.1 839.533 181.46C843.733 178.7 848.413 177.32 853.573 177.32C855.253 177.32 856.753 177.44 858.073 177.68C859.513 177.8 860.593 178.04 861.313 178.4V194.42C859.753 194.06 858.133 193.82 856.453 193.7C854.893 193.46 853.333 193.34 851.773 193.34C845.773 193.34 840.733 195.86 836.653 200.9C832.693 205.82 830.713 212.9 830.713 222.14V263H813.793ZM875.59 263V178.4H892.51V263H875.59ZM883.87 160.94C880.87 160.94 878.41 160.04 876.49 158.24C874.69 156.44 873.79 154.1 873.79 151.22C873.79 148.34 874.69 146.06 876.49 144.38C878.41 142.58 880.87 141.68 883.87 141.68C886.99 141.68 889.51 142.58 891.43 144.38C893.35 146.06 894.31 148.34 894.31 151.22C894.31 154.1 893.35 156.44 891.43 158.24C889.51 160.04 886.99 160.94 883.87 160.94ZM944.239 264.8C937.759 264.8 931.699 263.84 926.059 261.92C920.419 259.88 914.959 257 909.679 253.28L916.699 239.96C921.979 243.56 926.839 246.26 931.279 248.06C935.719 249.74 940.159 250.58 944.599 250.58C950.719 250.58 955.279 249.68 958.279 247.88C961.399 245.96 962.959 243.14 962.959 239.42C962.959 236.3 961.999 234.02 960.079 232.58C958.279 231.02 955.039 229.82 950.359 228.98L935.959 226.28C928.159 224.84 922.279 222.26 918.319 218.54C914.359 214.7 912.379 209.78 912.379 203.78C912.379 198.86 913.579 194.36 915.979 190.28C918.499 186.08 922.219 182.78 927.139 180.38C932.059 177.86 938.239 176.6 945.679 176.6C951.799 176.6 957.559 177.5 962.959 179.3C968.359 181.1 973.219 183.56 977.539 186.68L970.699 199.46C966.979 196.94 963.079 194.9 958.999 193.34C954.919 191.66 950.659 190.82 946.219 190.82C941.059 190.82 936.979 191.72 933.979 193.52C931.099 195.2 929.659 197.96 929.659 201.8C929.659 204.32 930.559 206.3 932.359 207.74C934.159 209.06 937.159 210.14 941.359 210.98L955.759 213.68C963.679 215.12 969.739 217.7 973.939 221.42C978.139 225.14 980.239 230.54 980.239 237.62C980.239 245.54 977.179 252.08 971.059 257.24C964.939 262.28 955.999 264.8 944.239 264.8Z" fill="#171717"/>
<defs>
<filter id="filter0_d_277_16459" x="131.667" y="100" width="216.667" height="216.667" filterUnits="userSpaceOnUse" color-interpolation-filters="sRGB">
<feFlood flood-opacity="0" result="BackgroundImageFix"/>
<feColorMatrix in="SourceAlpha" type="matrix" values="0 0 0 0 0 0 0 0 0 0 0 0 0 0 0 0 0 0 127 0" result="hardAlpha"/>
<feOffset dy="8.33333"/>
<feGaussianBlur stdDeviation="8.33333"/>
<feComposite in2="hardAlpha" operator="out"/>
<feColorMatrix type="matrix" values="0 0 0 0 0 0 0 0 0 0 0 0 0 0 0 0 0 0 0.05 0"/>
<feBlend mode="normal" in2="BackgroundImageFix" result="effect1_dropShadow_277_16459"/>
<feBlend mode="normal" in="SourceGraphic" in2="effect1_dropShadow_277_16459" result="shape"/>
</filter>
<clipPath id="clip0_277_16459">
<rect width="200" height="200" fill="white" transform="translate(140 100)"/>
</clipPath>
</defs>
</svg>
