<svg preserveAspectRatio="none" width="100%" height="100%" overflow="visible" style="display: block;" viewBox="0 0 16.25 11.25" fill="none" xmlns="http://www.w3.org/2000/svg">
<g id="Vector">
<path d="M15.625 0C15.9702 0 16.25 0.279822 16.25 0.625C16.25 0.970178 15.9702 1.25 15.625 1.25H0.625C0.279822 1.25 0 0.970178 0 0.625C0 0.279822 0.279822 0 0.625 0H15.625Z" fill="var(--fill-0, #525252)"/>
<path d="M12.2917 5C12.6368 5 12.9167 5.27982 12.9167 5.625C12.9167 5.97018 12.6368 6.25 12.2917 6.25H3.95833C3.61316 6.25 3.33333 5.97018 3.33333 5.625C3.33333 5.27982 3.61316 5 3.95833 5H12.2917Z" fill="var(--fill-0, #525252)"/>
<path d="M9.79167 10C10.1368 10 10.4167 10.2798 10.4167 10.625C10.4167 10.9702 10.1368 11.25 9.79167 11.25H6.45833C6.11316 11.25 5.83333 10.9702 5.83333 10.625C5.83333 10.2798 6.11316 10 6.45833 10H9.79167Z" fill="var(--fill-0, #525252)"/>
</g>
</svg>
