<svg preserveAspectRatio="none" width="100%" height="100%" overflow="visible" style="display: block;" viewBox="0 0 16.25 15.8577" fill="none" xmlns="http://www.w3.org/2000/svg">
<g id="Vector">
<path d="M15 1.77653C15.0001 1.741 14.9912 1.70586 14.974 1.6748C14.9567 1.64382 14.9317 1.61781 14.9015 1.59912C14.8714 1.58046 14.8368 1.56986 14.8014 1.5682C14.766 1.56658 14.7306 1.57434 14.6989 1.59017L11.6496 3.11442C11.3315 3.27337 10.9806 3.35693 10.625 3.35693C10.2694 3.35693 9.91851 3.27418 9.60043 3.11523L6.0905 1.35986C5.94594 1.28765 5.78659 1.25 5.625 1.25C5.50376 1.25 5.38361 1.27077 5.27019 1.31185L5.15951 1.35986L1.36556 3.25765C1.33096 3.27494 1.30128 3.30125 1.28093 3.33415C1.26063 3.36701 1.25002 3.40538 1.25 3.44401V14.0804C1.24992 14.1159 1.25885 14.1511 1.27605 14.1821C1.2933 14.2132 1.31826 14.2399 1.34847 14.2586C1.3786 14.2773 1.41318 14.2879 1.44857 14.2896C1.48397 14.2912 1.51939 14.2834 1.55111 14.2676L4.60043 12.7425C4.91851 12.5836 5.26942 12.5008 5.625 12.5008C5.98059 12.5008 6.3315 12.5836 6.64958 12.7425L10.1595 14.4979L10.2702 14.5451C10.3837 14.5862 10.5037 14.6077 10.625 14.6077C10.7865 14.6077 10.946 14.5701 11.0905 14.4979L14.8844 12.6001L14.9325 12.5675C14.9465 12.5547 14.959 12.5399 14.9691 12.5236C14.9894 12.4907 15 12.4524 15 12.4137V1.77653ZM16.25 12.4146C16.2498 12.6853 16.1743 12.9509 16.0319 13.1812C15.8895 13.4113 15.6856 13.5973 15.4435 13.7183L11.6496 15.6152C11.3315 15.7742 10.9806 15.8577 10.625 15.8577C10.2694 15.8577 9.91851 15.775 9.60043 15.616L6.0905 13.8607C5.94595 13.7885 5.78659 13.7508 5.625 13.7508C5.50376 13.7508 5.38361 13.7716 5.27019 13.8127L5.15951 13.8607L2.11019 15.3857C1.88759 15.497 1.64019 15.5493 1.39161 15.5379C1.14305 15.5265 0.901594 15.4517 0.690108 15.3206C0.478656 15.1896 0.303874 15.0067 0.183109 14.7892C0.0624031 14.5718 -0.000543 14.3267 3.52874e-06 14.078V3.4432L0.00325874 3.34147C0.0197877 3.10624 0.0935243 2.878 0.218102 2.67659C0.360517 2.44636 0.564326 2.26052 0.806481 2.13949L4.60043 0.241699L4.72168 0.185547C5.00668 0.0633102 5.31398 3.23527e-07 5.625 0C5.98059 0 6.3315 0.0827526 6.64958 0.241699L10.1595 1.99707L10.2702 2.04427C10.3837 2.08538 10.5037 2.10693 10.625 2.10693C10.7865 2.10693 10.946 2.06923 11.0905 1.99707L14.1398 0.472005C14.3623 0.360821 14.6099 0.307695 14.8584 0.31901C15.1066 0.330378 15.3478 0.405514 15.5591 0.536296C15.7706 0.667243 15.9452 0.850317 16.0661 1.06771C16.1868 1.28479 16.2502 1.52898 16.25 1.77734V12.4146Z" fill="var(--fill-0, #525252)"/>
<path d="M10 15.2316V2.73161C10 2.38643 10.2798 2.10693 10.625 2.10693C10.9702 2.10693 11.25 2.38643 11.25 2.73161V15.2316C11.25 15.5768 10.9702 15.8566 10.625 15.8566C10.2798 15.8566 10 15.5768 10 15.2316Z" fill="var(--fill-0, #525252)"/>
<path d="M5.00001 13.1249V0.624943C5.00001 0.279765 5.27983 0 5.625 0C5.97018 0 6.25001 0.279765 6.25001 0.624943V13.1249C6.25001 13.4701 5.97018 13.7499 5.62501 13.7499C5.27983 13.7499 5.00001 13.4701 5.00001 13.1249Z" fill="var(--fill-0, #525252)"/>
</g>
</svg>
