<svg preserveAspectRatio="none" width="100%" height="100%" overflow="visible" style="display: block;" viewBox="0 0 16.25 16.25" fill="none" xmlns="http://www.w3.org/2000/svg">
<g id="Vector">
<path d="M0 8.125C0 5.97012 0.855824 3.90329 2.37956 2.37956C3.90329 0.855824 5.97012 0 8.125 0H8.12744L8.5498 0.0113932C10.514 0.113684 12.3872 0.875531 13.8656 2.17285L14.1764 2.45931L16.0669 4.34977C16.311 4.59385 16.311 4.98948 16.0669 5.23356C15.8228 5.47764 15.4272 5.47764 15.1831 5.23356L13.3073 3.35775L13.0412 3.11279C11.6836 1.92137 9.9377 1.257 8.12337 1.25C6.3006 1.25043 4.55228 1.97442 3.26335 3.26335C1.97403 4.55266 1.25 6.30164 1.25 8.125C1.25 8.47018 0.970178 8.75 0.625 8.75C0.279822 8.75 0 8.47018 0 8.125Z" fill="var(--fill-0, #525252)"/>
<path d="M15 0.625C15 0.279822 15.2798 0 15.625 0C15.9702 0 16.25 0.279822 16.25 0.625V4.79167C16.25 5.13684 15.9702 5.41667 15.625 5.41667H11.4583C11.1132 5.41667 10.8333 5.13684 10.8333 4.79167C10.8333 4.44649 11.1132 4.16667 11.4583 4.16667H15V0.625Z" fill="var(--fill-0, #525252)"/>
<path d="M15 8.125C15 7.77982 15.2798 7.5 15.625 7.5C15.9702 7.5 16.25 7.77982 16.25 8.125C16.25 10.2799 15.3942 12.3467 13.8704 13.8704C12.3467 15.3942 10.2799 16.25 8.125 16.25H8.12256C5.8646 16.2415 3.69698 15.3601 2.07357 13.7907L0.183105 11.9002C-0.0609721 11.6561 -0.0609721 11.2605 0.183105 11.0164C0.427183 10.7724 0.822817 10.7724 1.06689 11.0164L2.94271 12.8923C4.33385 14.2371 6.19095 14.9915 8.12581 14.9992C9.94888 14.999 11.6975 14.2758 12.9867 12.9867C14.276 11.6973 15 9.94836 15 8.125Z" fill="var(--fill-0, #525252)"/>
<path d="M0 15.625V11.4583C0 11.1132 0.279822 10.8333 0.625 10.8333H4.79167C5.13684 10.8333 5.41667 11.1132 5.41667 11.4583C5.41667 11.8035 5.13684 12.0833 4.79167 12.0833H1.25V15.625C1.25 15.9702 0.970178 16.25 0.625 16.25C0.279822 16.25 0 15.9702 0 15.625Z" fill="var(--fill-0, #525252)"/>
</g>
</svg>
