<svg preserveAspectRatio="none" width="100%" height="100%" overflow="visible" style="display: block;" viewBox="0 0 17.9301 17.9153" fill="none" xmlns="http://www.w3.org/2000/svg">
<g id="Vector">
<path d="M0.00288516 4.7876C0.00292389 4.50492 0.0853608 4.22852 0.239702 3.9917C0.392871 3.75676 0.610354 3.57057 0.866329 3.45622L8.00744 0.206706L8.12056 0.158691C8.38699 0.0540449 8.671 4.71649e-05 8.95796 0C9.2861 0 9.61075 0.0705374 9.9093 0.206706L17.0675 3.46517C17.3235 3.57952 17.5409 3.76489 17.6941 3.99984C17.8484 4.23658 17.9301 4.51317 17.9301 4.79574C17.9301 5.07845 17.8485 5.35559 17.6941 5.59245C17.5408 5.82761 17.3222 6.01279 17.0659 6.12712L17.0667 6.12793L9.91662 9.37663L9.91744 9.37744C9.61903 9.5135 9.29488 9.58411 8.96691 9.58415C8.63877 9.58415 8.31413 9.51362 8.01558 9.37744L0.865515 6.11898C0.610064 6.00459 0.392643 5.81886 0.239702 5.58431C0.0852401 5.34739 0.00288516 5.07042 0.00288516 4.7876ZM1.25289 4.7876C1.25289 4.828 1.265 4.86768 1.28706 4.90153C1.29802 4.9183 1.31104 4.93343 1.32613 4.94629L1.3774 4.97803L1.38391 4.98128L8.53397 8.23975C8.66962 8.30158 8.81784 8.33415 8.96691 8.33415C9.11599 8.33411 9.2634 8.30162 9.39904 8.23975L16.5499 4.98942L16.5564 4.98698C16.5933 4.97067 16.6247 4.94347 16.6468 4.90967C16.6687 4.87587 16.6801 4.83605 16.6801 4.79574C16.6801 4.75556 16.6687 4.7163 16.6468 4.68262C16.6247 4.64882 16.5933 4.62161 16.5564 4.60531L16.5491 4.60286L9.39091 1.3444C9.2552 1.2825 9.10712 1.25 8.95796 1.25C8.80893 1.25005 8.66143 1.28174 8.52583 1.34359L1.38391 4.59391L1.3774 4.59717C1.34058 4.6134 1.30912 4.64002 1.28706 4.67367C1.26504 4.70746 1.25292 4.74726 1.25289 4.7876Z" fill="var(--fill-0, #525252)"/>
<path d="M17.2868 8.33363C17.6319 8.33093 17.9139 8.6086 17.9167 8.95375C17.9189 9.2367 17.8383 9.51389 17.6856 9.75209C17.5328 9.9903 17.3146 10.1797 17.0565 10.2957L17.0557 10.2949L9.90886 13.5444C9.61186 13.6789 9.28844 13.7487 8.96241 13.7487C8.63649 13.7487 8.31449 13.6788 8.01758 13.5444H8.01596L0.849614 10.2859L0.845545 10.2843C0.592575 10.1672 0.378557 9.97981 0.228683 9.74476C0.0787641 9.50955 -0.000685762 9.23593 4.45927e-06 8.957C0.000902296 8.61186 0.281482 8.33278 0.626632 8.33363C0.971773 8.33453 1.25086 8.61511 1.25 8.96026C1.24992 9.00003 1.2612 9.03901 1.28256 9.07256C1.30372 9.10578 1.33402 9.13229 1.36963 9.14906L8.53191 12.4059C8.66688 12.467 8.81425 12.4987 8.96241 12.4987C9.11058 12.4987 9.25711 12.467 9.39209 12.4059L16.5413 9.15638L16.5438 9.15557C16.5807 9.139 16.6123 9.11148 16.6341 9.07745C16.6558 9.04349 16.667 9.00381 16.6667 8.96351C16.664 8.61837 16.9416 8.33636 17.2868 8.33363Z" fill="var(--fill-0, #525252)"/>
<path d="M17.2868 12.5003C17.6319 12.4976 17.9139 12.7753 17.9167 13.1204C17.9189 13.4034 17.8383 13.6806 17.6856 13.9188C17.5328 14.157 17.3146 14.3463 17.0565 14.4624L17.0557 14.4616L9.90886 17.7111C9.61186 17.8456 9.28844 17.9153 8.96241 17.9153C8.63649 17.9153 8.31449 17.8455 8.01758 17.7111H8.01596L0.849614 14.4526L0.845545 14.451C0.592575 14.3339 0.378557 14.1465 0.228683 13.9114C0.0787641 13.6762 -0.000685762 13.4026 4.45927e-06 13.1237C0.000902296 12.7785 0.281482 12.4994 0.626632 12.5003C0.971773 12.5012 1.25086 12.7818 1.25 13.1269C1.24992 13.1667 1.2612 13.2057 1.28256 13.2392C1.30372 13.2724 1.33402 13.299 1.36963 13.3157L8.53191 16.5726C8.66688 16.6337 8.81425 16.6653 8.96241 16.6653C9.11058 16.6653 9.25711 16.6337 9.39209 16.5726L16.5413 13.3231L16.5438 13.3222C16.5807 13.3057 16.6123 13.2781 16.6341 13.2441C16.6558 13.2102 16.667 13.1705 16.6667 13.1302C16.664 12.785 16.9416 12.503 17.2868 12.5003Z" fill="var(--fill-0, #525252)"/>
</g>
</svg>
