<svg preserveAspectRatio="none" width="100%" height="100%" overflow="visible" style="display: block;" viewBox="0 0 16.2499 16.2499" fill="none" xmlns="http://www.w3.org/2000/svg">
<g id="Vector">
<path d="M8.125 0C9.73197 0 11.303 0.476842 12.6392 1.36963C13.9751 2.26237 15.0166 3.53099 15.6315 5.01546C16.2465 6.50011 16.4073 8.13419 16.0937 9.71029C15.7802 11.2863 15.0067 12.7342 13.8704 13.8704C12.7342 15.0067 11.2863 15.7802 9.71029 16.0937C8.13419 16.4073 6.50011 16.2465 5.01546 15.6315C3.53099 15.0166 2.26237 13.9751 1.36963 12.6392C0.476842 11.303 0 9.73197 0 8.125C0 7.77982 0.279822 7.5 0.625 7.5C0.970178 7.5 1.25 7.77982 1.25 8.125C1.25 9.48468 1.65349 10.8136 2.40885 11.9442C3.16428 13.0747 4.23776 13.9564 5.49398 14.4767C6.75017 14.9971 8.13257 15.1334 9.46615 14.8682C10.7998 14.6029 12.0252 13.9481 12.9867 12.9867C13.9481 12.0252 14.6029 10.7998 14.8682 9.46615C15.1334 8.13257 14.9971 6.75017 14.4767 5.49398C13.9564 4.23776 13.0747 3.16428 11.9442 2.40885C10.8138 1.65364 9.48521 1.25016 8.12581 1.25C6.19095 1.25767 4.33385 2.01289 2.94271 3.35775L1.06689 5.23356C0.822817 5.47764 0.427183 5.47764 0.183105 5.23356C-0.0609721 4.98948 -0.0609721 4.59385 0.183105 4.34977L2.07357 2.45931C3.69698 0.889916 5.8646 0.00851753 8.12256 0H8.125Z" fill="var(--fill-0, #525252)"/>
<path d="M0 0.625C0 0.279822 0.279822 0 0.625 0C0.970178 0 1.25 0.279822 1.25 0.625V4.16667H4.79167C5.13684 4.16667 5.41667 4.44649 5.41667 4.79167C5.41667 5.13684 5.13684 5.41667 4.79167 5.41667H0.625C0.279822 5.41667 0 5.13684 0 4.79167V0.625Z" fill="var(--fill-0, #525252)"/>
<path d="M7.5 3.95833C7.5 3.61316 7.77982 3.33333 8.125 3.33333C8.47018 3.33333 8.75 3.61316 8.75 3.95833V7.73844L11.7375 9.23258C12.0461 9.3869 12.1715 9.76213 12.0174 10.0708C11.8631 10.3794 11.4879 10.5049 11.1792 10.3507L7.84587 8.68408C7.63413 8.57821 7.5 8.36173 7.5 8.125V3.95833Z" fill="var(--fill-0, #525252)"/>
</g>
</svg>
