<svg preserveAspectRatio="none" width="100%" height="100%" overflow="visible" style="display: block;" viewBox="0 0 16.249 17.9167" fill="none" xmlns="http://www.w3.org/2000/svg">
<g id="Vector">
<path d="M9.02613 16.1458C9.19872 15.8469 9.5809 15.7446 9.87981 15.9172C10.1787 16.0898 10.2811 16.4719 10.1085 16.7708C9.90738 17.1191 9.61854 17.4088 9.27027 17.6099C8.92201 17.8109 8.52657 17.9166 8.12444 17.9167C7.72232 17.9167 7.32689 17.8109 6.97861 17.6099C6.63024 17.4087 6.34072 17.1192 6.13958 16.7708C5.96697 16.4719 6.06934 16.0898 6.36825 15.9172C6.66717 15.7446 7.04932 15.8469 7.22193 16.1458C7.31336 16.3042 7.44526 16.4353 7.60361 16.5267C7.76193 16.6181 7.94163 16.6667 8.12444 16.6667C8.30716 16.6666 8.48703 16.6181 8.64527 16.5267C8.80341 16.4353 8.93479 16.304 9.02613 16.1458Z" fill="var(--fill-0, #525252)"/>
<path d="M12.4989 5.625C12.4989 4.46482 12.0382 3.35218 11.218 2.53174C10.3975 1.71127 9.2842 1.25 8.12388 1.25C6.96363 1.25005 5.85104 1.71131 5.03062 2.53174C4.21021 3.3522 3.74888 4.46473 3.74888 5.625C3.74888 7.56493 3.44436 8.90226 2.96275 9.92187C2.4856 10.9319 1.85344 11.5839 1.30422 12.1509L1.27085 12.2005C1.26204 12.2186 1.25542 12.2382 1.25214 12.2583C1.2457 12.298 1.25139 12.3387 1.2676 12.3755C1.28386 12.4124 1.31038 12.4438 1.3441 12.4658C1.37791 12.4879 1.41765 12.5 1.45803 12.5H14.7914C14.8315 12.4999 14.8708 12.4885 14.9045 12.4666C14.9382 12.4447 14.9654 12.4131 14.9818 12.3763C14.9981 12.3394 15.0029 12.2982 14.9964 12.2583C14.99 12.2185 14.9723 12.1815 14.9452 12.1517C14.3948 11.5844 13.762 10.9323 13.285 9.92269C12.8032 8.90288 12.4989 7.56498 12.4989 5.625ZM13.7489 5.625C13.7489 7.43418 14.0326 8.57865 14.4154 9.38883C14.7988 10.2001 15.3013 10.724 15.8558 11.2956C15.8604 11.3003 15.8652 11.3053 15.8697 11.3102C16.0599 11.5193 16.1849 11.7791 16.2302 12.0581C16.2754 12.3371 16.2387 12.6232 16.1244 12.8817C16.01 13.14 15.8233 13.3599 15.5864 13.514C15.3793 13.6488 15.1417 13.7282 14.8963 13.7459L14.7905 13.75H1.45722C1.17466 13.7498 0.897977 13.6675 0.661317 13.5132C0.424601 13.3587 0.237417 13.1387 0.123394 12.88C0.00940569 12.6215 -0.0263572 12.3353 0.0192273 12.0565C0.064871 11.7775 0.190045 11.5174 0.380555 11.3086L0.393576 11.2948C0.94704 10.7234 1.44985 10.1995 1.83319 9.38802C2.2158 8.5779 2.49888 7.4338 2.49888 5.625C2.49888 4.13316 3.09194 2.70203 4.14683 1.64714C5.20165 0.592482 6.63226 5.42933e-05 8.12388 0C9.61568 0 11.0469 0.592307 12.1017 1.64714C13.1566 2.70203 13.7489 4.13316 13.7489 5.625Z" fill="var(--fill-0, #525252)"/>
</g>
</svg>
