<svg preserveAspectRatio="none" width="100%" height="100%" overflow="visible" style="display: block;" viewBox="0 0 16.25 16.25" fill="none" xmlns="http://www.w3.org/2000/svg">
<g id="Vector">
<path d="M5.83333 1.45833C5.83333 1.34327 5.74006 1.25 5.625 1.25H1.45833C1.34327 1.25 1.25 1.34327 1.25 1.45833V7.29167C1.25 7.40673 1.34327 7.5 1.45833 7.5H5.625C5.74006 7.5 5.83333 7.40673 5.83333 7.29167V1.45833ZM7.08333 7.29167C7.08333 8.09708 6.43042 8.75 5.625 8.75H1.45833C0.652918 8.75 0 8.09708 0 7.29167V1.45833C0 0.652918 0.652918 0 1.45833 0H5.625C6.43042 0 7.08333 0.652918 7.08333 1.45833V7.29167Z" fill="var(--fill-0, #525252)"/>
<path d="M15 1.45833C15 1.34327 14.9067 1.25 14.7917 1.25H10.625C10.5099 1.25 10.4167 1.34327 10.4167 1.45833V3.95833C10.4167 4.07339 10.5099 4.16667 10.625 4.16667H14.7917C14.9067 4.16667 15 4.07339 15 3.95833V1.45833ZM16.25 3.95833C16.25 4.76375 15.5971 5.41667 14.7917 5.41667H10.625C9.81958 5.41667 9.16667 4.76375 9.16667 3.95833V1.45833C9.16667 0.652918 9.81958 0 10.625 0H14.7917C15.5971 0 16.25 0.652918 16.25 1.45833V3.95833Z" fill="var(--fill-0, #525252)"/>
<path d="M15 8.95833C15 8.84327 14.9067 8.75 14.7917 8.75H10.625C10.5099 8.75 10.4167 8.84327 10.4167 8.95833V14.7917C10.4167 14.9067 10.5099 15 10.625 15H14.7917C14.9067 15 15 14.9067 15 14.7917V8.95833ZM16.25 14.7917C16.25 15.5971 15.5971 16.25 14.7917 16.25H10.625C9.81958 16.25 9.16667 15.5971 9.16667 14.7917V8.95833C9.16667 8.15292 9.81958 7.5 10.625 7.5H14.7917C15.5971 7.5 16.25 8.15292 16.25 8.95833V14.7917Z" fill="var(--fill-0, #525252)"/>
<path d="M5.83333 12.2917C5.83333 12.1766 5.74006 12.0833 5.625 12.0833H1.45833C1.34327 12.0833 1.25 12.1766 1.25 12.2917V14.7917C1.25 14.9067 1.34327 15 1.45833 15H5.625C5.74006 15 5.83333 14.9067 5.83333 14.7917V12.2917ZM7.08333 14.7917C7.08333 15.5971 6.43042 16.25 5.625 16.25H1.45833C0.652918 16.25 0 15.5971 0 14.7917V12.2917C0 11.4863 0.652918 10.8333 1.45833 10.8333H5.625C6.43042 10.8333 7.08333 11.4863 7.08333 12.2917V14.7917Z" fill="var(--fill-0, #525252)"/>
</g>
</svg>
