<svg preserveAspectRatio="none" width="100%" height="100%" overflow="visible" style="display: block;" viewBox="0 0 14.5833 14.5833" fill="none" xmlns="http://www.w3.org/2000/svg">
<g id="Vector">
<path d="M13.9583 2.5C14.3035 2.5 14.5833 2.77982 14.5833 3.125C14.5833 3.47018 14.3035 3.75 13.9583 3.75H6.45833C6.11316 3.75 5.83333 3.47018 5.83333 3.125C5.83333 2.77982 6.11316 2.5 6.45833 2.5H13.9583Z" fill="var(--fill-0, #525252)"/>
<path d="M8.95833 10.8333C9.30351 10.8333 9.58333 11.1132 9.58333 11.4583C9.58333 11.8035 9.30351 12.0833 8.95833 12.0833H1.45833C1.11316 12.0833 0.833333 11.8035 0.833333 11.4583C0.833333 11.1132 1.11316 10.8333 1.45833 10.8333H8.95833Z" fill="var(--fill-0, #525252)"/>
<path d="M13.3333 11.4583C13.3333 10.4228 12.4939 9.58333 11.4583 9.58333C10.4228 9.58333 9.58333 10.4228 9.58333 11.4583C9.58333 12.4939 10.4228 13.3333 11.4583 13.3333C12.4939 13.3333 13.3333 12.4939 13.3333 11.4583ZM14.5833 11.4583C14.5833 13.1842 13.1842 14.5833 11.4583 14.5833C9.73244 14.5833 8.33333 13.1842 8.33333 11.4583C8.33333 9.73244 9.73244 8.33333 11.4583 8.33333C13.1842 8.33333 14.5833 9.73244 14.5833 11.4583Z" fill="var(--fill-0, #525252)"/>
<path d="M5 3.125C5 2.08947 4.16053 1.25 3.125 1.25C2.08947 1.25 1.25 2.08947 1.25 3.125C1.25 4.16053 2.08947 5 3.125 5C4.16053 5 5 4.16053 5 3.125ZM6.25 3.125C6.25 4.85089 4.85089 6.25 3.125 6.25C1.39911 6.25 0 4.85089 0 3.125C0 1.39911 1.39911 0 3.125 0C4.85089 0 6.25 1.39911 6.25 3.125Z" fill="var(--fill-0, #525252)"/>
</g>
</svg>
